<?xml version="1.0" encoding="UTF-8"?><svg xmlns="http://www.w3.org/2000/svg" xmlns:xlink="http://www.w3.org/1999/xlink" height="507pt" style="width:597px;height:507px;" version="1.1" viewBox="0 0 597 507" width="597pt">
    <defs>
        <filter height="300%" id="f1" width="300%" x="-1" y="-1">
            <feGaussianBlur result="blurOut" stdDeviation="2.0"/>
            <feColorMatrix in="blurOut" result="blurOut2" type="matrix" values="0 0 0 0 0 0 0 0 0 0 0 0 0 0 0 0 0 0 .4 0"/>
            <feOffset dx="4.0" dy="4.0" in="blurOut2" result="blurOut3"/>
            <feBlend in="SourceGraphic" in2="blurOut3" mode="normal"/>
        </filter>
    </defs>
    <g>
        <rect fill="#FEFECE" filter="url(#f1)" height="86.4141" style="stroke: #A80036; stroke-width: 1.5;" width="84" x="22" y="143"/>
        <ellipse cx="47.35" cy="159" fill="#ADD1B2" rx="11" ry="11" style="stroke: #A80036; stroke-width: 1.0;"/>
        <path d="M50.3188,164.6406 Q49.7406,164.9375 49.1,165.0859 Q48.4594,165.2344 47.7563,165.2344 Q45.2563,165.2344 43.9359,163.5859 Q42.6156,161.9375 42.6156,158.8125 Q42.6156,155.6875 43.9359,154.0313 Q45.2563,152.375 47.7563,152.375 Q48.4594,152.375 49.1078,152.5313 Q49.7563,152.6875 50.3188,152.9844 L50.3188,155.7031 Q49.6938,155.125 49.1,154.8516 Q48.5063,154.5781 47.8813,154.5781 Q46.5375,154.5781 45.85,155.6484 Q45.1625,156.7188 45.1625,158.8125 Q45.1625,160.9063 45.85,161.9766 Q46.5375,163.0469 47.8813,163.0469 Q48.5063,163.0469 49.1,162.7734 Q49.6938,162.5 50.3188,161.9219 L50.3188,164.6406 Z "/>
        <text fill="#000000" font-family="sans-serif" font-size="12" lengthAdjust="spacingAndGlyphs" textLength="29" x="63.65" y="163.1543">User</text>
        <line style="stroke: #A80036; stroke-width: 1.5;" x1="23" x2="105" y1="175" y2="175"/>
        <rect fill="none" height="6" style="stroke: #C82930; stroke-width: 1.0;" width="6" x="30" y="183.9023"/>
        <text fill="#000000" font-family="sans-serif" font-size="11" lengthAdjust="spacingAndGlyphs" textLength="24" x="42" y="189.2104">uuid</text>
        <rect fill="none" height="6" style="stroke: #C82930; stroke-width: 1.0;" width="6" x="30" y="196.707"/>
        <text fill="#000000" font-family="sans-serif" font-size="11" lengthAdjust="spacingAndGlyphs" textLength="58" x="42" y="202.0151">username</text>
        <rect fill="none" height="6" style="stroke: #C82930; stroke-width: 1.0;" width="6" x="30" y="209.5117"/>
        <text fill="#000000" font-family="sans-serif" font-size="11" lengthAdjust="spacingAndGlyphs" textLength="56" x="42" y="214.8198">password</text>
        <line style="stroke: #A80036; stroke-width: 1.5;" x1="23" x2="105" y1="221.4141" y2="221.4141"/>
        <rect fill="#FEFECE" filter="url(#f1)" height="48" style="stroke: #A80036; stroke-width: 1.5;" width="114" x="474" y="431"/>
        <ellipse cx="489" cy="447" fill="#ADD1B2" rx="11" ry="11" style="stroke: #A80036; stroke-width: 1.0;"/>
        <path d="M491.9688,452.6406 Q491.3906,452.9375 490.75,453.0859 Q490.1094,453.2344 489.4063,453.2344 Q486.9063,453.2344 485.5859,451.5859 Q484.2656,449.9375 484.2656,446.8125 Q484.2656,443.6875 485.5859,442.0313 Q486.9063,440.375 489.4063,440.375 Q490.1094,440.375 490.7578,440.5313 Q491.4063,440.6875 491.9688,440.9844 L491.9688,443.7031 Q491.3438,443.125 490.75,442.8516 Q490.1563,442.5781 489.5313,442.5781 Q488.1875,442.5781 487.5,443.6484 Q486.8125,444.7188 486.8125,446.8125 Q486.8125,448.9063 487.5,449.9766 Q488.1875,451.0469 489.5313,451.0469 Q490.1563,451.0469 490.75,450.7734 Q491.3438,450.5 491.9688,449.9219 L491.9688,452.6406 Z "/>
        <text fill="#000000" font-family="sans-serif" font-size="12" lengthAdjust="spacingAndGlyphs" textLength="82" x="503" y="451.1543">Authorization</text>
        <line style="stroke: #A80036; stroke-width: 1.5;" x1="475" x2="587" y1="463" y2="463"/>
        <line style="stroke: #A80036; stroke-width: 1.5;" x1="475" x2="587" y1="471" y2="471"/>
        <rect fill="#FEFECE" filter="url(#f1)" height="86.4141" style="stroke: #A80036; stroke-width: 1.5;" width="144" x="299" y="143"/>
        <ellipse cx="314.45" cy="159" fill="#ADD1B2" rx="11" ry="11" style="stroke: #A80036; stroke-width: 1.0;"/>
        <path d="M317.4188,164.6406 Q316.8406,164.9375 316.2,165.0859 Q315.5594,165.2344 314.8563,165.2344 Q312.3563,165.2344 311.0359,163.5859 Q309.7156,161.9375 309.7156,158.8125 Q309.7156,155.6875 311.0359,154.0313 Q312.3563,152.375 314.8563,152.375 Q315.5594,152.375 316.2078,152.5313 Q316.8563,152.6875 317.4188,152.9844 L317.4188,155.7031 Q316.7938,155.125 316.2,154.8516 Q315.6063,154.5781 314.9813,154.5781 Q313.6375,154.5781 312.95,155.6484 Q312.2625,156.7188 312.2625,158.8125 Q312.2625,160.9063 312.95,161.9766 Q313.6375,163.0469 314.9813,163.0469 Q315.6063,163.0469 316.2,162.7734 Q316.7938,162.5 317.4188,161.9219 L317.4188,164.6406 Z "/>
        <text fill="#000000" font-family="sans-serif" font-size="12" lengthAdjust="spacingAndGlyphs" textLength="111" x="328.55" y="163.1543">UserAuthorization</text>
        <line style="stroke: #A80036; stroke-width: 1.5;" x1="300" x2="442" y1="175" y2="175"/>
        <rect fill="none" height="6" style="stroke: #C82930; stroke-width: 1.0;" width="6" x="307" y="183.9023"/>
        <text fill="#000000" font-family="sans-serif" font-size="11" lengthAdjust="spacingAndGlyphs" textLength="90" x="319" y="189.2104">readPermission</text>
        <rect fill="none" height="6" style="stroke: #C82930; stroke-width: 1.0;" width="6" x="307" y="196.707"/>
        <text fill="#000000" font-family="sans-serif" font-size="11" lengthAdjust="spacingAndGlyphs" textLength="92" x="319" y="202.0151">writePermission</text>
        <rect fill="none" height="6" style="stroke: #C82930; stroke-width: 1.0;" width="6" x="307" y="209.5117"/>
        <text fill="#000000" font-family="sans-serif" font-size="11" lengthAdjust="spacingAndGlyphs" textLength="118" x="319" y="214.8198">executionPermission</text>
        <line style="stroke: #A80036; stroke-width: 1.5;" x1="300" x2="442" y1="221.4141" y2="221.4141"/>
        <rect fill="#FEFECE" filter="url(#f1)" height="86.4141" style="stroke: #A80036; stroke-width: 1.5;" width="152" x="252" y="412"/>
        <ellipse cx="267" cy="428" fill="#ADD1B2" rx="11" ry="11" style="stroke: #A80036; stroke-width: 1.0;"/>
        <path d="M269.9688,433.6406 Q269.3906,433.9375 268.75,434.0859 Q268.1094,434.2344 267.4063,434.2344 Q264.9063,434.2344 263.5859,432.5859 Q262.2656,430.9375 262.2656,427.8125 Q262.2656,424.6875 263.5859,423.0313 Q264.9063,421.375 267.4063,421.375 Q268.1094,421.375 268.7578,421.5313 Q269.4063,421.6875 269.9688,421.9844 L269.9688,424.7031 Q269.3438,424.125 268.75,423.8516 Q268.1563,423.5781 267.5313,423.5781 Q266.1875,423.5781 265.5,424.6484 Q264.8125,425.7188 264.8125,427.8125 Q264.8125,429.9063 265.5,430.9766 Q266.1875,432.0469 267.5313,432.0469 Q268.1563,432.0469 268.75,431.7734 Q269.3438,431.5 269.9688,430.9219 L269.9688,433.6406 Z "/>
        <text fill="#000000" font-family="sans-serif" font-size="12" lengthAdjust="spacingAndGlyphs" textLength="120" x="281" y="432.1543">GroupAuthorization</text>
        <line style="stroke: #A80036; stroke-width: 1.5;" x1="253" x2="403" y1="444" y2="444"/>
        <rect fill="none" height="6" style="stroke: #C82930; stroke-width: 1.0;" width="6" x="260" y="452.9023"/>
        <text fill="#000000" font-family="sans-serif" font-size="11" lengthAdjust="spacingAndGlyphs" textLength="90" x="272" y="458.2104">readPermission</text>
        <rect fill="none" height="6" style="stroke: #C82930; stroke-width: 1.0;" width="6" x="260" y="465.707"/>
        <text fill="#000000" font-family="sans-serif" font-size="11" lengthAdjust="spacingAndGlyphs" textLength="92" x="272" y="471.0151">writePermission</text>
        <rect fill="none" height="6" style="stroke: #C82930; stroke-width: 1.0;" width="6" x="260" y="478.5117"/>
        <text fill="#000000" font-family="sans-serif" font-size="11" lengthAdjust="spacingAndGlyphs" textLength="118" x="272" y="483.8198">executionPermission</text>
        <line style="stroke: #A80036; stroke-width: 1.5;" x1="253" x2="403" y1="490.4141" y2="490.4141"/>
        <rect fill="#FEFECE" filter="url(#f1)" height="48" style="stroke: #A80036; stroke-width: 1.5;" width="70" x="112" y="431"/>
        <ellipse cx="127" cy="447" fill="#ADD1B2" rx="11" ry="11" style="stroke: #A80036; stroke-width: 1.0;"/>
        <path d="M129.9688,452.6406 Q129.3906,452.9375 128.75,453.0859 Q128.1094,453.2344 127.4063,453.2344 Q124.9063,453.2344 123.5859,451.5859 Q122.2656,449.9375 122.2656,446.8125 Q122.2656,443.6875 123.5859,442.0313 Q124.9063,440.375 127.4063,440.375 Q128.1094,440.375 128.7578,440.5313 Q129.4063,440.6875 129.9688,440.9844 L129.9688,443.7031 Q129.3438,443.125 128.75,442.8516 Q128.1563,442.5781 127.5313,442.5781 Q126.1875,442.5781 125.5,443.6484 Q124.8125,444.7188 124.8125,446.8125 Q124.8125,448.9063 125.5,449.9766 Q126.1875,451.0469 127.5313,451.0469 Q128.1563,451.0469 128.75,450.7734 Q129.3438,450.5 129.9688,449.9219 L129.9688,452.6406 Z "/>
        <text fill="#000000" font-family="sans-serif" font-size="12" lengthAdjust="spacingAndGlyphs" textLength="38" x="141" y="451.1543">Group</text>
        <line style="stroke: #A80036; stroke-width: 1.5;" x1="113" x2="181" y1="463" y2="463"/>
        <line style="stroke: #A80036; stroke-width: 1.5;" x1="113" x2="181" y1="471" y2="471"/>
        <rect fill="#FEFECE" filter="url(#f1)" height="48" style="stroke: #A80036; stroke-width: 1.5;" width="59" x="129.5" y="296.5"/>
        <ellipse cx="144.5" cy="312.5" fill="#ADD1B2" rx="11" ry="11" style="stroke: #A80036; stroke-width: 1.0;"/>
        <path d="M147.4688,318.1406 Q146.8906,318.4375 146.25,318.5859 Q145.6094,318.7344 144.9063,318.7344 Q142.4063,318.7344 141.0859,317.0859 Q139.7656,315.4375 139.7656,312.3125 Q139.7656,309.1875 141.0859,307.5313 Q142.4063,305.875 144.9063,305.875 Q145.6094,305.875 146.2578,306.0313 Q146.9063,306.1875 147.4688,306.4844 L147.4688,309.2031 Q146.8438,308.625 146.25,308.3516 Q145.6563,308.0781 145.0313,308.0781 Q143.6875,308.0781 143,309.1484 Q142.3125,310.2188 142.3125,312.3125 Q142.3125,314.4063 143,315.4766 Q143.6875,316.5469 145.0313,316.5469 Q145.6563,316.5469 146.25,316.2734 Q146.8438,316 147.4688,315.4219 L147.4688,318.1406 Z "/>
        <text fill="#000000" font-family="sans-serif" font-size="12" lengthAdjust="spacingAndGlyphs" textLength="27" x="158.5" y="316.6543">Role</text>
        <line style="stroke: #A80036; stroke-width: 1.5;" x1="130.5" x2="187.5" y1="328.5" y2="328.5"/>
        <line style="stroke: #A80036; stroke-width: 1.5;" x1="130.5" x2="187.5" y1="336.5" y2="336.5"/>
        <rect fill="#FEFECE" filter="url(#f1)" height="73.6094" style="stroke: #A80036; stroke-width: 1.5;" width="116" x="6" y="8"/>
        <ellipse cx="21" cy="24" fill="#ADD1B2" rx="11" ry="11" style="stroke: #A80036; stroke-width: 1.0;"/>
        <path d="M23.9688,29.6406 Q23.3906,29.9375 22.75,30.0859 Q22.1094,30.2344 21.4063,30.2344 Q18.9063,30.2344 17.5859,28.5859 Q16.2656,26.9375 16.2656,23.8125 Q16.2656,20.6875 17.5859,19.0313 Q18.9063,17.375 21.4063,17.375 Q22.1094,17.375 22.7578,17.5313 Q23.4063,17.6875 23.9688,17.9844 L23.9688,20.7031 Q23.3438,20.125 22.75,19.8516 Q22.1563,19.5781 21.5313,19.5781 Q20.1875,19.5781 19.5,20.6484 Q18.8125,21.7188 18.8125,23.8125 Q18.8125,25.9063 19.5,26.9766 Q20.1875,28.0469 21.5313,28.0469 Q22.1563,28.0469 22.75,27.7734 Q23.3438,27.5 23.9688,26.9219 L23.9688,29.6406 Z "/>
        <text fill="#000000" font-family="sans-serif" font-size="12" lengthAdjust="spacingAndGlyphs" textLength="84" x="35" y="28.1543">UserAttribute</text>
        <line style="stroke: #A80036; stroke-width: 1.5;" x1="7" x2="121" y1="40" y2="40"/>
        <rect fill="none" height="6" style="stroke: #C82930; stroke-width: 1.0;" width="6" x="14" y="48.9023"/>
        <text fill="#000000" font-family="sans-serif" font-size="11" lengthAdjust="spacingAndGlyphs" textLength="32" x="26" y="54.2104">name</text>
        <rect fill="none" height="6" style="stroke: #C82930; stroke-width: 1.0;" width="6" x="14" y="61.707"/>
        <text fill="#000000" font-family="sans-serif" font-size="11" lengthAdjust="spacingAndGlyphs" textLength="30" x="26" y="67.0151">value</text>
        <line style="stroke: #A80036; stroke-width: 1.5;" x1="7" x2="121" y1="73.6094" y2="73.6094"/>
        <rect fill="#FEFECE" filter="url(#f1)" height="60.8047" style="stroke: #A80036; stroke-width: 1.5;" width="91" x="253.5" y="290"/>
        <ellipse cx="268.5" cy="306" fill="#ADD1B2" rx="11" ry="11" style="stroke: #A80036; stroke-width: 1.0;"/>
        <path d="M271.4688,311.6406 Q270.8906,311.9375 270.25,312.0859 Q269.6094,312.2344 268.9063,312.2344 Q266.4063,312.2344 265.0859,310.5859 Q263.7656,308.9375 263.7656,305.8125 Q263.7656,302.6875 265.0859,301.0313 Q266.4063,299.375 268.9063,299.375 Q269.6094,299.375 270.2578,299.5313 Q270.9063,299.6875 271.4688,299.9844 L271.4688,302.7031 Q270.8438,302.125 270.25,301.8516 Q269.6563,301.5781 269.0313,301.5781 Q267.6875,301.5781 267,302.6484 Q266.3125,303.7188 266.3125,305.8125 Q266.3125,307.9063 267,308.9766 Q267.6875,310.0469 269.0313,310.0469 Q269.6563,310.0469 270.25,309.7734 Q270.8438,309.5 271.4688,308.9219 L271.4688,311.6406 Z "/>
        <text fill="#000000" font-family="sans-serif" font-size="12" lengthAdjust="spacingAndGlyphs" textLength="59" x="282.5" y="310.1543">Resource</text>
        <line style="stroke: #A80036; stroke-width: 1.5;" x1="254.5" x2="343.5" y1="322" y2="322"/>
        <rect fill="none" height="6" style="stroke: #C82930; stroke-width: 1.0;" width="6" x="261.5" y="330.9023"/>
        <text fill="#000000" font-family="sans-serif" font-size="11" lengthAdjust="spacingAndGlyphs" textLength="24" x="273.5" y="336.2104">type</text>
        <line style="stroke: #A80036; stroke-width: 1.5;" x1="254.5" x2="343.5" y1="342.8047" y2="342.8047"/>
        <rect fill="#FEFECE" filter="url(#f1)" height="48" style="stroke: #A80036; stroke-width: 1.5;" width="88" x="176" y="162"/>
        <ellipse cx="191" cy="178" fill="#ADD1B2" rx="11" ry="11" style="stroke: #A80036; stroke-width: 1.0;"/>
        <path d="M193.9688,183.6406 Q193.3906,183.9375 192.75,184.0859 Q192.1094,184.2344 191.4063,184.2344 Q188.9063,184.2344 187.5859,182.5859 Q186.2656,180.9375 186.2656,177.8125 Q186.2656,174.6875 187.5859,173.0313 Q188.9063,171.375 191.4063,171.375 Q192.1094,171.375 192.7578,171.5313 Q193.4063,171.6875 193.9688,171.9844 L193.9688,174.7031 Q193.3438,174.125 192.75,173.8516 Q192.1563,173.5781 191.5313,173.5781 Q190.1875,173.5781 189.5,174.6484 Q188.8125,175.7188 188.8125,177.8125 Q188.8125,179.9063 189.5,180.9766 Q190.1875,182.0469 191.5313,182.0469 Q192.1563,182.0469 192.75,181.7734 Q193.3438,181.5 193.9688,180.9219 L193.9688,183.6406 Z "/>
        <text fill="#000000" font-family="sans-serif" font-size="12" lengthAdjust="spacingAndGlyphs" textLength="56" x="205" y="182.1543">UserRole</text>
        <line style="stroke: #A80036; stroke-width: 1.5;" x1="177" x2="263" y1="194" y2="194"/>
        <line style="stroke: #A80036; stroke-width: 1.5;" x1="177" x2="263" y1="202" y2="202"/>
        <path d="M116.889,142.466 C134.734,130.328 155.483,118.757 176.5,112.5 C213.985,101.34 227.159,100.866 264.5,112.5 C284.876,118.849 304.795,130.607 321.791,142.886 " fill="none" style="stroke: #A80036; stroke-width: 1.0;"/>
        <polygon fill="#A80036" points="106.176,150.055,113.3842,149.8506,115.9679,143.1182,108.7597,143.3227,106.176,150.055" style="stroke: #A80036; stroke-width: 1.0;"/>
        <text fill="#000000" font-family="sans-serif" font-size="13" lengthAdjust="spacingAndGlyphs" textLength="8" x="114.1125" y="139.6306">1</text>
        <text fill="#000000" font-family="sans-serif" font-size="13" lengthAdjust="spacingAndGlyphs" textLength="8" x="305.3108" y="131.8639">n</text>
        <path d="M423.19,229.007 C441.938,246.27 461.909,267.49 476,290 C501.179,330.225 516.23,383.279 524.063,417.9973 " fill="none" style="stroke: #A80036; stroke-width: 1.0;"/>
        <polygon fill="#A80036" points="526.807,430.781,529.4584,424.075,524.2881,419.0483,521.6367,425.7543,526.807,430.781" style="stroke: #A80036; stroke-width: 1.0;"/>
        <text fill="#000000" font-family="sans-serif" font-size="13" lengthAdjust="spacingAndGlyphs" textLength="8" x="423.1715" y="249.4158">n</text>
        <text fill="#000000" font-family="sans-serif" font-size="13" lengthAdjust="spacingAndGlyphs" textLength="8" x="516.7075" y="419.7369">1</text>
        <path d="M341.582,241.137 C332.554,257.751 322.955,275.417 315.16,289.762 " fill="none" style="stroke: #A80036; stroke-width: 1.0;"/>
        <polygon fill="#A80036" points="348.021,229.288,341.6416,232.6501,342.2915,239.8319,348.6709,236.4698,348.021,229.288" style="stroke: #A80036; stroke-width: 1.0;"/>
        <text fill="#000000" font-family="sans-serif" font-size="13" lengthAdjust="spacingAndGlyphs" textLength="24" x="318.4462" y="249.4268">0..n</text>
        <text fill="#000000" font-family="sans-serif" font-size="13" lengthAdjust="spacingAndGlyphs" textLength="13" x="304.1524" y="278.9761">m</text>
        <path d="M119.15,186 C138.078,186 157.005,186 175.932,186 " fill="none" style="stroke: #A80036; stroke-width: 1.0;"/>
        <polygon fill="#A80036" points="106.047,186,112.047,190,118.047,186,112.047,182,106.047,186" style="stroke: #A80036; stroke-width: 1.0;"/>
        <text fill="#000000" font-family="sans-serif" font-size="13" lengthAdjust="spacingAndGlyphs" textLength="8" x="113.9613" y="181.7537">1</text>
        <text fill="#000000" font-family="sans-serif" font-size="13" lengthAdjust="spacingAndGlyphs" textLength="8" x="159.9707" y="181.8357">n</text>
        <path d="M209.375,210.08 C199.942,230.569 186.017,260.815 175.197,284.317 " fill="none" style="stroke: #A80036; stroke-width: 1.0;"/>
        <polygon fill="#A80036" points="169.708,296.24,175.8504,292.4623,174.7257,285.3394,168.5833,289.1171,169.708,296.24" style="stroke: #A80036; stroke-width: 1.0;"/>
        <text fill="#000000" font-family="sans-serif" font-size="13" lengthAdjust="spacingAndGlyphs" textLength="8" x="197.6273" y="230.2563">n</text>
        <text fill="#000000" font-family="sans-serif" font-size="13" lengthAdjust="spacingAndGlyphs" textLength="8" x="163.3431" y="285.5816">1</text>
        <path d="M240.56,221.484 C253.178,242.647 269.175,269.476 281.24,289.713 " fill="none" style="stroke: #A80036; stroke-width: 1.0;"/>
        <polygon fill="#A80036" points="233.761,210.08,233.3979,217.282,239.9062,220.3871,240.2693,213.1851,233.761,210.08" style="stroke: #A80036; stroke-width: 1.0;"/>
        <text fill="#000000" font-family="sans-serif" font-size="13" lengthAdjust="spacingAndGlyphs" textLength="24" x="210.2123" y="230.2563">0..n</text>
        <text fill="#000000" font-family="sans-serif" font-size="13" lengthAdjust="spacingAndGlyphs" textLength="13" x="263.2364" y="278.917">m</text>
        <path d="M182.352,455 C201.15,455 219.949,455 238.748,455 " fill="none" style="stroke: #A80036; stroke-width: 1.0;"/>
        <polygon fill="#A80036" points="251.762,455,245.762,451,239.762,455,245.762,459,251.762,455" style="stroke: #A80036; stroke-width: 1.0;"/>
        <text fill="#000000" font-family="sans-serif" font-size="13" lengthAdjust="spacingAndGlyphs" textLength="8" x="190.0994" y="450.6034">1</text>
        <text fill="#000000" font-family="sans-serif" font-size="13" lengthAdjust="spacingAndGlyphs" textLength="8" x="236.1143" y="451.3386">n</text>
        <path d="M404.125,455 C422.917,455 441.708,455 460.5,455 " fill="none" style="stroke: #A80036; stroke-width: 1.0;"/>
        <polygon fill="#A80036" points="473.51,455,467.51,451,461.51,455,467.51,459,473.51,455" style="stroke: #A80036; stroke-width: 1.0;"/>
        <text fill="#000000" font-family="sans-serif" font-size="13" lengthAdjust="spacingAndGlyphs" textLength="8" x="412.0123" y="451.3148">n</text>
        <text fill="#000000" font-family="sans-serif" font-size="13" lengthAdjust="spacingAndGlyphs" textLength="8" x="458.0159" y="451.1609">1</text>
        <path d="M155.714,357.781 C153.607,381.052 150.933,410.5731 149.107,430.7402 " fill="none" style="stroke: #A80036; stroke-width: 1.0;"/>
        <polygon fill="#A80036" points="156.91,344.58,152.385,350.1947,155.8274,356.5311,160.3524,350.9164,156.91,344.58" style="stroke: #A80036; stroke-width: 1.0;"/>
        <text fill="#000000" font-family="sans-serif" font-size="13" lengthAdjust="spacingAndGlyphs" textLength="8" x="147.3494" y="364.7563">1</text>
        <text fill="#000000" font-family="sans-serif" font-size="13" lengthAdjust="spacingAndGlyphs" textLength="8" x="140.6456" y="420.0818">n</text>
        <path d="M64,82.158 C64,100.739 64,123.488 64,142.861 " fill="none" style="stroke: #A80036; stroke-width: 1.0;"/>
        <text fill="#000000" font-family="sans-serif" font-size="13" lengthAdjust="spacingAndGlyphs" textLength="8" x="55.3375" y="101.6647">n</text>
        <text fill="#000000" font-family="sans-serif" font-size="13" lengthAdjust="spacingAndGlyphs" textLength="8" x="55.3625" y="131.8349">1</text>
        <path d="M357.578,309.58 C370.283,310.643 379.5,314.284 379.5,320.5 C379.5,328.703 363.45,332.42 344.516,331.651 " fill="none" style="stroke: #A80036; stroke-width: 1.0;"/>
        <polygon fill="none" points="344.516,309.349,350.4443,313.4545,356.5141,309.5613,350.5858,305.4558,344.516,309.349" style="stroke: #A80036; stroke-width: 1.0;"/>
        <text fill="#000000" font-family="sans-serif" font-size="13" lengthAdjust="spacingAndGlyphs" textLength="84" x="385.5" y="325.0669">sub-resource</text>
        <text fill="#000000" font-family="sans-serif" font-size="13" lengthAdjust="spacingAndGlyphs" textLength="8" x="352.4076" y="303.4695">1</text>
        <text fill="#000000" font-family="sans-serif" font-size="13" lengthAdjust="spacingAndGlyphs" textLength="8" x="352.4076" y="329.3259">n</text>
    </g>
</svg>
